<?xml version="1.0" encoding="UTF-8"?>
<svg width="100px" height="100px" viewBox="0 0 100 100" version="1.1" xmlns="http://www.w3.org/2000/svg" xmlns:xlink="http://www.w3.org/1999/xlink">
    <!-- Generator: Sketch 52.5 (67469) - http://www.bohemiancoding.com/sketch -->
    <title>add</title>
    <desc>Created with Sketch.</desc>
    <g id="add" stroke="none" stroke-width="1" fill="none" fill-rule="evenodd">
        <path d="M38.4615387,25.0000001 L61.5384617,25.0000001 L61.5384617,84.6153846 L51.7573302,106.622931 C51.5639689,107.057993 51.2160982,107.405864 50.7810357,107.599225 C49.8104892,108.030579 48.6740242,107.593477 48.2426702,106.622931 L38.4615387,84.6153846 L38.4615387,25.0000001 Z M38.4615387,19.2307693 L38.4615387,13.4615385 L61.5384617,13.4615385 L61.5384617,19.2307693 L38.4615387,19.2307693 Z M38.4615387,7.69230777 L38.4615387,7.28896739e-08 C38.4615387,-4.24834415 41.9055022,-7.69230763 46.1538464,-7.69230763 L53.8461539,-7.69230763 C58.0944982,-7.69230763 61.5384617,-4.24834415 61.5384617,7.28896703e-08 L61.5384617,7.69230777 L38.4615387,7.69230777 Z M55.2250914,84.6153846 L44.7749089,84.6153846 L50.0000002,96.3718398 L55.2250914,84.6153846 Z" id="Combined-Shape" fill="#fff" fill-rule="nonzero" transform="translate(50.000000, 50.036572) rotate(45.000000) translate(-50.000000, -50.036572) "></path>
    </g>
</svg>