<?xml version="1.0" encoding="UTF-8"?>
<svg width="100px" height="100px" viewBox="0 0 100 100" version="1.1" xmlns="http://www.w3.org/2000/svg" xmlns:xlink="http://www.w3.org/1999/xlink">
    <!-- Generator: Sketch 52.5 (67469) - http://www.bohemiancoding.com/sketch -->
    <title>clear</title>
    <desc>Created with Sketch.</desc>
    <g id="clear" stroke="none" stroke-width="1" fill="none" fill-rule="evenodd">
        <path d="M50,0 C22.5,0 0,22.5 0,50 C0,77.5 22.5,100 50,100 C77.5,100 100,77.5 100,50 C100,22.5 77.5,0 50,0 Z M70.5,65.5 C72,67 72,69 70.5,70.5 C70,71 69,71.5 68,71.5 C67,71.5 66,71 65.5,70.5 L50,55 L34.5,70.5 C34,71 33,71.5 32,71.5 C31,71.5 30,71 29.5,70.5 C28,69 28,67 29.5,65.5 L45,50 L29.5,34.5 C28,33 28,31 29.5,29.5 C31,28 33,28 34.5,29.5 L50,45 L65.5,29.5 C67,28 69,28 70.5,29.5 C72,31 72,33 70.5,34.5 L55,50 L70.5,65.5 Z" id="Shape" fill="#000000" fill-rule="nonzero"></path>
    </g>
</svg>