<?xml version="1.0" encoding="UTF-8"?>
<svg width="100px" height="100px" viewBox="0 0 100 100" version="1.1" xmlns="http://www.w3.org/2000/svg" xmlns:xlink="http://www.w3.org/1999/xlink">
    <!-- Generator: Sketch 52.5 (67469) - http://www.bohemiancoding.com/sketch -->
    <title>close</title>
    <desc>Created with Sketch.</desc>
    <g id="close" stroke="none" stroke-width="1" fill="none" fill-rule="evenodd">
        <path d="M50,44.6966991 L89.8483496,4.84834957 C91.3128157,3.38388348 93.6871843,3.38388348 95.1516504,4.84834957 C96.6161165,6.31281566 96.6161165,8.68718434 95.1516504,10.1516504 L55.3033009,50 L95.1516504,89.8483496 C96.6161165,91.3128157 96.6161165,93.6871843 95.1516504,95.1516504 C93.6871843,96.6161165 91.3128157,96.6161165 89.8483496,95.1516504 L50,55.3033009 L10.1516504,95.1516504 C8.68718434,96.6161165 6.31281566,96.6161165 4.84834957,95.1516504 C3.38388348,93.6871843 3.38388348,91.3128157 4.84834957,89.8483496 L44.6966991,50 L4.84834957,10.1516504 C3.38388348,8.68718434 3.38388348,6.31281566 4.84834957,4.84834957 C6.31281566,3.38388348 8.68718434,3.38388348 10.1516504,4.84834957 L50,44.6966991 Z" id="Combined-Shape" fill="#555" fill-rule="nonzero"></path>
    </g>
</svg>