<?xml version="1.0" encoding="UTF-8"?>
<svg width="100px" height="100px" viewBox="0 0 100 100" version="1.1" xmlns="http://www.w3.org/2000/svg" xmlns:xlink="http://www.w3.org/1999/xlink">
    <!-- Generator: Sketch 52.5 (67469) - http://www.bohemiancoding.com/sketch -->
    <title>guideback copy</title>
    <desc>Created with Sketch.</desc>
    <g id="guideback-copy" stroke="none" stroke-width="1" fill="none" fill-rule="evenodd">
        <path d="M60,57.5 C56.5482203,57.5 53.75,54.7017797 53.75,51.25 C53.75,47.7982203 56.5482203,45 60,45 C63.4517797,45 66.25,47.7982203 66.25,51.25 C66.25,54.7017797 63.4517797,57.5 60,57.5 Z M85,57.5 C81.5482203,57.5 78.75,54.7017797 78.75,51.25 C78.75,47.7982203 81.5482203,45 85,45 C88.4517797,45 91.25,47.7982203 91.25,51.25 C91.25,54.7017797 88.4517797,57.5 85,57.5 Z M35,57.5 C31.5482203,57.5 28.75,54.7017797 28.75,51.25 C28.75,47.7982203 31.5482203,45 35,45 C38.4517797,45 41.25,47.7982203 41.25,51.25 C41.25,54.7017797 38.4517797,57.5 35,57.5 Z" id="Combined-Shape" fill="#555555"></path>
    </g>
</svg>