<?xml version="1.0" encoding="UTF-8"?>
<svg width="100px" height="100px" viewBox="0 0 100 100" version="1.1" xmlns="http://www.w3.org/2000/svg" xmlns:xlink="http://www.w3.org/1999/xlink">
    <!-- Generator: Sketch 52.5 (67469) - http://www.bohemiancoding.com/sketch -->
    <title>liebiaoarrow</title>
    <desc>Created with Sketch.</desc>
    <g id="liebiaoarrow" stroke="none" stroke-width="1" fill="none" fill-rule="evenodd">
        <path d="M98.4906811,51.3216573 L61.0932568,90.8493259 C60.3633257,91.6208356 59.1461673,91.6545417 58.3746576,90.9246105 C58.3546255,90.9056581 58.3350035,90.8862769 58.315805,90.8664805 L53.7423083,86.1505401 C53.0266891,85.4126326 53.0178877,84.2424209 53.7223266,83.4938328 L84.0006367,51.3178954 C84.6974171,50.5774457 84.6974171,49.4225543 84.0006367,48.6821046 L53.7223266,16.5061672 C53.0178877,15.7575791 53.0266891,14.5873674 53.7423083,13.8494599 L58.315805,9.1335195 C59.0552104,8.37108496 60.2726923,8.35241615 61.0351268,9.09182156 C61.0549232,9.11102002 61.0743044,9.13064209 61.0932568,9.15067413 L98.4906811,48.6783427 C99.1921944,49.4198158 99.1921944,50.5801842 98.4906811,51.3216573 Z" id="Path" fill="#000000"></path>
    </g>
</svg>