<?xml version="1.0" encoding="UTF-8"?>
<svg width="100px" height="100px" viewBox="0 0 100 100" version="1.1" xmlns="http://www.w3.org/2000/svg" xmlns:xlink="http://www.w3.org/1999/xlink">
    <!-- Generator: Sketch 52.5 (67469) - http://www.bohemiancoding.com/sketch -->
    <title>local</title>
    <desc>Created with Sketch.</desc>
    <g id="local" stroke="none" stroke-width="1" fill="none" fill-rule="evenodd">
        <path d="M50.525113,0 C30.0053668,0 13.3333333,16.78625 13.3333333,37.4055123 C13.3333333,44.1934206 15.1791833,50.7120707 18.4823137,56.3528976 C22.1637044,62.6373483 48.6897466,98.8432791 48.6897466,98.8432791 C49.0401373,99.5287154 49.7653079,99.9658194 50.5286592,99.9658194 C51.2953754,99.9658194 51.9963554,99.5322125 52.3675717,98.8432791 C52.3675717,98.8432791 78.896947,62.6233151 82.5679316,56.3495773 C85.8746373,50.7016996 87.7204873,44.1795436 87.7204873,37.4056099 C87.7204873,16.7863477 71.0208401,9.76563636e-05 50.5252196,9.76563636e-05 L50.525113,0 Z M50.5252196,49.9042573 C43.6865476,49.9042573 38.1278951,44.277366 38.1278951,37.4089302 C38.1278951,30.5125941 43.6898322,24.9136032 50.5252196,24.9136032 C57.364095,24.9136032 62.922544,30.5161097 62.922544,37.4089302 C62.922544,44.2774832 57.3674474,49.9042573 50.5252196,49.9042573 Z" id="Shape" fill="#D8DCE0" fill-rule="nonzero"></path>
    </g>
</svg>