<?xml version="1.0" encoding="UTF-8"?>
<svg width="100px" height="100px" viewBox="0 0 100 100" version="1.1" xmlns="http://www.w3.org/2000/svg" xmlns:xlink="http://www.w3.org/1999/xlink">
    <!-- Generator: Sketch 52.5 (67469) - http://www.bohemiancoding.com/sketch -->
    <title>successful</title>
    <desc>Created with Sketch.</desc>
    <g id="successful" stroke="none" stroke-width="1" fill="none" fill-rule="evenodd">
        <path d="M50,100 C22.3857625,100 0,77.6142375 0,50 C0,22.3857625 22.3857625,0 50,0 C77.6142375,0 100,22.3857625 100,50 C100,77.6142375 77.6142375,100 50,100 Z M50,91.9354839 C73.1603282,91.9354839 91.9354839,73.1603282 91.9354839,50 C91.9354839,26.8396718 73.1603282,8.06451613 50,8.06451613 C26.8396718,8.06451613 8.06451613,26.8396718 8.06451613,50 C8.06451613,73.1603282 26.8396718,91.9354839 50,91.9354839 Z M42.2240515,58.0850575 L65.6472963,33.5025365 C67.1276788,31.9488862 69.6478616,31.8343878 71.2762822,33.2467972 C72.9047029,34.6592065 73.0247115,37.0636729 71.5443291,38.6173233 L44.9789672,66.4974726 C43.3300916,68.2279552 40.4501123,68.1412707 38.9188412,66.3150691 L28.2926965,53.6422738 C26.917901,52.0026856 27.1965239,49.6102175 28.9150184,48.298547 C30.6335128,46.9868764 33.1411198,47.2527061 34.5159152,48.8922944 L42.2240515,58.0850575 Z" id="Combined-Shape" fill="#000000" fill-rule="nonzero"></path>
    </g>
</svg>