<?xml version="1.0" encoding="UTF-8"?>
<svg width="100px" height="100px" viewBox="0 0 100 100" version="1.1" xmlns="http://www.w3.org/2000/svg" xmlns:xlink="http://www.w3.org/1999/xlink">
    <!-- Generator: Sketch 52.5 (67469) - http://www.bohemiancoding.com/sketch -->
    <title>tab02</title>
    <desc>Created with Sketch.</desc>
    <g id="tab02" stroke="none" stroke-width="1" fill="none" fill-rule="evenodd">
        <path d="M26.25,16.25 L73.75,16.25 C74.4403559,16.25 75,16.8096441 75,17.5 L75,55 C75,55.6903559 74.4403559,56.25 73.75,56.25 L26.25,56.25 C25.5596441,56.25 25,55.6903559 25,55 L25,17.5 C25,16.8096441 25.5596441,16.25 26.25,16.25 Z M50,27.5 C49.3096441,27.5 48.75,28.0596441 48.75,28.75 C48.75,29.4403559 49.3096441,30 50,30 L63.75,30 C64.4403559,30 65,29.4403559 65,28.75 C65,28.0596441 64.4403559,27.5 63.75,27.5 L50,27.5 Z M36.25,27.5 C35.5596441,27.5 35,28.0596441 35,28.75 L35,36.25 C35,36.9403559 35.5596441,37.5 36.25,37.5 L42.5,37.5 C43.1903559,37.5 43.75,36.9403559 43.75,36.25 L43.75,28.75 C43.75,28.0596441 43.1903559,27.5 42.5,27.5 L36.25,27.5 Z M50,35 C49.3096441,35 48.75,35.5596441 48.75,36.25 C48.75,36.9403559 49.3096441,37.5 50,37.5 L63.75,37.5 C64.4403559,37.5 65,36.9403559 65,36.25 C65,35.5596441 64.4403559,35 63.75,35 L50,35 Z M36.25,42.5 C35.5596441,42.5 35,43.0596441 35,43.75 C35,44.4403559 35.5596441,45 36.25,45 L63.75,45 C64.4403559,45 65,44.4403559 65,43.75 C65,43.0596441 64.4403559,42.5 63.75,42.5 L36.25,42.5 Z M24.55,92.495 L22.305,92.495 L22.305,84.6672939 C21.0495496,85.0608606 19.7165811,85.4271281 18.2587492,85.781173 L18.026541,85.8375664 L16.8522108,83.70523 L17.2663349,83.6190539 C20.9618222,82.8500508 24.016441,81.8876236 26.4743903,80.7097644 C25.5425652,79.9762468 24.3328468,79.1881619 22.8461142,78.3469842 L22.390507,78.0892065 L24.3935932,76.8292006 L24.5593654,76.9317176 C26.2037619,77.948647 27.4983158,78.8505306 28.4530412,79.6486839 C30.4112577,78.44799 31.8815777,77.0799517 32.8837248,75.53 L25.23686,75.53 C23.6935391,76.9393424 21.7596691,78.1887902 19.3983183,79.3026349 L19.1714541,79.4096463 L17.6902501,77.4964245 L18.062306,77.3375936 C21.837682,75.7258834 24.3810475,73.7452582 25.6980447,71.4185631 L25.7999099,71.2386013 L28.2395167,71.5165312 L28.0232353,71.9220588 C27.7581777,72.4190418 27.4649621,72.9002898 27.1392588,73.3750001 L35.62,73.375 L35.62,75.1275 L35.5841245,75.2728793 C34.0867334,78.1220818 31.5283609,80.4864152 27.9008065,82.375 L36.25,82.375 L36.25,92.495 L33.9825,92.495 L33.9825,91.1675 L24.55,91.1675 L24.55,92.495 Z M33.9825,84.5075 L24.55,84.5075 L24.55,88.9675 L33.9825,88.9675 L33.9825,84.5075 Z M46.0373859,80.5134429 C46.0202739,81.1465874 45.9928901,81.7273429 45.9442312,82.555 L56.3875,82.555 L56.3875,92.6075 L54.1425,92.6075 L54.1425,84.755 L45.6748175,84.755 C45.1029187,88.0671129 43.8507486,90.6512299 41.9341765,92.4550625 L41.7279208,92.6491855 L40.0174854,91.1564418 L40.268121,90.9201283 C42.5548857,88.7640359 43.7256275,85.2957819 43.77,80.505 L43.77,71.935 L46.0375,71.935 L46.0375,77.29 L52.005,77.29 L52.005,71.305 L54.2275,71.305 L54.2275,77.29 L59.29,77.29 L59.29,79.4675 L46.0374738,79.4675 L46.0373859,80.5134429 Z M63.2325,76.25 L63.2325,74.095 L71.355,74.095 L71.355,71.3275 L73.6225,71.3275 L73.6225,74.095 L81.7675,74.095 L81.7675,76.25 L73.6224765,76.25 L73.6222691,79.0095104 C73.5819731,80.0572062 73.4882303,81.0486971 73.3419319,81.97 L75.8947539,81.97 C76.6834435,80.5516155 77.3867513,78.843852 78.0063878,76.835375 L78.095942,76.545096 L80.3208084,77.1631145 L80.2228846,77.4719512 C79.6988182,79.124776 79.0621921,80.6161184 78.3056388,81.97 L82.6675,81.97 L82.6675,84.125 L74.3589485,84.125 C75.536365,86.7929596 78.3067872,88.9130346 82.6847464,90.4705778 L83.0478108,90.5997449 L81.8536892,92.5480485 L81.6089404,92.450149 C76.9629971,90.5917716 73.9393039,88.1128776 72.539578,84.9906147 C72.143561,86.0073828 71.6429989,86.9283886 71.0372766,87.7610773 C69.4702028,89.7890551 66.9054767,91.3554315 63.3466956,92.4804655 L63.1200377,92.5521186 L61.890889,90.6611206 L62.2784979,90.5352735 C65.6916338,89.4271125 68.0437226,87.9961214 69.3566574,86.2542534 C69.8015126,85.5579582 70.1592203,84.8574581 70.4370478,84.125 L62.3325,84.125 L62.3325,81.97 L71.0261759,81.97 C71.2059848,80.9897612 71.3158887,80.0088612 71.355,78.9975 L71.355,76.25 L63.2325,76.25 Z M66.8433069,76.8181158 C67.4677167,78.1594405 68.010809,79.6416299 68.4806291,81.2971863 L68.5683679,81.6063613 L66.4559398,82.1423505 L66.3721961,81.8514511 C65.9586673,80.4149828 65.4299264,78.9901653 64.7901967,77.5736209 L64.6476752,77.2580377 L66.7256533,76.5653783 L66.8433069,76.8181158 Z" id="Combined-Shape" fill="#000000"></path>
    </g>
</svg>