<?xml version="1.0" encoding="UTF-8"?>
<svg width="100px" height="100px" viewBox="0 0 100 100" version="1.1" xmlns="http://www.w3.org/2000/svg" xmlns:xlink="http://www.w3.org/1999/xlink">
    <!-- Generator: Sketch 52.5 (67469) - http://www.bohemiancoding.com/sketch -->
    <title>tab03</title>
    <desc>Created with Sketch.</desc>
    <g id="tab03" stroke="none" stroke-width="1" fill="none" fill-rule="evenodd">
        <path d="M38.8970949,81.7840692 L39.31,81.6439764 L39.31,83.9489697 L39.0947838,84.0194716 C37.8046219,84.4421108 36.5266892,84.824481 35.215,85.1774282 L35.215,90 C35.215,91.4791632 34.3764403,92.27 32.8325,92.27 L30.0831358,92.27 L29.6021504,90.057467 L30.0241879,90.0936417 C30.885616,90.1674784 31.6146077,90.205 32.2925,90.205 C32.7482952,90.205 32.925,90.0314506 32.925,89.595 L32.925,85.7075944 C31.4708298,86.0206089 30.1598045,86.2724028 28.8549028,86.4834898 L28.5388442,86.5346169 L28.2291005,84.2734881 L28.5293104,84.2241385 C30.3774792,83.9203299 31.7027585,83.6822071 32.925,83.4245723 L32.925,79.5575 L28.29,79.5575 L28.29,77.38 L32.925,77.38 L32.925,75.059782 C31.9030837,75.2625326 30.8052215,75.4433826 29.5684339,75.6169669 L29.2812391,75.6572749 L28.808617,73.4832136 L29.1525101,73.444465 C32.3453668,73.0847065 35.1482824,72.4340297 37.578725,71.4839476 L37.8796502,71.3663132 L38.6316657,73.4970238 L38.3351627,73.6001552 C37.3940946,73.9274833 36.3519734,74.2459403 35.2150003,74.5565392 L35.215,77.38 L39.9668943,77.38 C39.8471315,75.6379783 39.7875,73.7380148 39.7875,71.6625 L39.7875,71.35 L42.0294213,71.35 L42.0324847,71.6594061 C42.0546036,73.8934136 42.1193837,75.7645998 42.2351506,77.38 L49.21,77.38 L49.21,79.5575 L42.4254594,79.5575 C42.5800819,81.0476201 42.7722508,82.2579491 43.0144972,83.2472314 C43.0922795,83.5842877 43.1761945,83.8977407 43.2847907,84.2614432 C44.2214536,83.0638983 45.0435168,81.7477349 45.736489,80.323292 L45.8782577,80.0318785 L47.8259579,81.0685576 L47.6931927,81.3398603 C46.676365,83.4177256 45.488429,85.1934811 44.1108881,86.690471 C44.4183864,87.4180959 44.6970802,87.9582749 44.9950157,88.3866562 C45.6617136,89.3867031 46.190689,89.89 46.4518945,89.8903899 C46.6420796,89.8808806 47.0210975,88.6626086 47.3506408,86.3558058 L47.4131925,85.917944 L49.4234304,86.9709258 L49.38563,87.1945783 C48.8198396,90.5421716 47.9791847,92.2475 46.715,92.2475 C45.6768816,92.2475 44.6333919,91.5236922 43.5388884,90.0960086 C43.1339132,89.5492922 42.7635746,88.9374916 42.4442086,88.2805682 C40.8795257,89.6095363 39.1113006,90.6641495 37.1549576,91.4380873 L36.9136527,91.5335486 L35.6925032,89.5922339 L36.0547445,89.4591657 C38.1373599,88.6941233 39.9688759,87.5765865 41.5604799,86.1080133 C41.3180006,85.4013863 41.0898664,84.6291498 40.8765199,83.797039 C40.5739867,82.5652967 40.3348002,81.1570533 40.1569879,79.5575 L35.215,79.5575 L35.215,82.889137 C36.5438433,82.5339257 37.7734494,82.165306 38.8970949,81.7840692 Z M44.3683438,71.6499843 C46.052873,72.7730038 47.4203471,73.8378401 48.5289162,74.9020665 L48.7589974,75.1229444 L47.137535,76.7444068 L46.9166744,76.5135071 C45.9060373,75.4569319 44.57598,74.3448252 42.936246,73.2013265 L42.6234764,72.9832109 L44.1597666,71.5109328 L44.3683438,71.6499843 Z M59.4025,75.1975 L59.4025,91.1675 L57.2025,91.1675 L57.2025,89.885 L53.7325,89.885 L53.7325,91.82 L51.5325,91.82 L51.5325,75.1975 L53.7158981,75.1975 C54.1125486,74.0441323 54.4035454,72.83139 54.5959574,71.5486436 L54.641812,71.2429464 L56.8975438,71.5562425 L56.8312302,71.8822841 C56.5787463,73.1236631 56.2821127,74.2165352 55.9219151,75.1975 L59.4025,75.1975 Z M57.2025,87.7525 L57.2025,83.45 L53.7325,83.45 L53.7325,87.7525 L57.2025,87.7525 Z M57.2025,81.3625 L57.2025,77.3525 L53.7325,77.3525 L53.7325,81.3625 L57.2025,81.3625 Z M63.241059,80.525226 C64.8149981,82.339628 66.0620286,84.0042421 66.9614379,85.4716994 L67.1149077,85.7220975 L65.3214592,86.9806578 L65.1470496,86.699901 C64.2331678,85.2287741 63.0043765,83.5754913 61.4608897,81.7412026 L61.2284022,81.4649131 L63.066515,80.3240155 L63.241059,80.525226 Z M71.035,75.22 L71.035,75.5325 C71.035,83.0239484 70.9222071,87.6597347 70.6948295,89.433267 C70.4473392,91.3141927 69.2657473,92.2925 67.235,92.2925 C67.0256805,92.2925 66.7569847,92.2837923 66.3099766,92.2640713 C66.3625424,92.2663904 65.2932661,92.2174906 64.9269905,92.2022291 L64.6952354,92.1925726 L64.1492085,90.0727034 L64.5723641,90.0928537 C65.5166055,90.1378176 66.3207182,90.16 67.01,90.16 C67.9008667,90.16 68.3881649,89.6995255 68.5442784,88.7067084 C68.6753073,87.4837716 68.7646007,83.7052021 68.810272,77.42 L63.1396032,77.42 C62.5096688,78.8042218 61.779227,80.0418025 60.9357368,81.1448282 L60.6858094,81.4716563 L59.3323606,79.6775498 L59.4657083,79.4908631 C60.9997793,77.3431637 62.0481388,74.6946766 62.6301102,71.5162174 L62.6833791,71.2252868 L64.9083407,71.5073242 L64.8412302,71.8372841 C64.5821256,73.1112153 64.303194,74.2177454 63.9790732,75.22 L71.035,75.22 Z M42.5,38.75 L57.5,38.75 C65.7842712,38.75 72.5,45.4657288 72.5,53.75 L72.5,57.5 L27.5,57.5 L27.5,53.75 C27.5,45.4657288 34.2157288,38.75 42.5,38.75 Z M50,36.25 C44.1319745,36.25 39.375,31.4930255 39.375,25.625 C39.375,19.7569745 44.1319745,15 50,15 C55.8680255,15 60.625,19.7569745 60.625,25.625 C60.625,31.4930255 55.8680255,36.25 50,36.25 Z" id="Combined-Shape" fill="#000000" fill-rule="nonzero"></path>
    </g>
</svg>