<?xml version="1.0" encoding="UTF-8"?>
<svg width="100px" height="100px" viewBox="0 0 100 100" version="1.1" xmlns="http://www.w3.org/2000/svg" xmlns:xlink="http://www.w3.org/1999/xlink">
    <!-- Generator: Sketch 52.5 (67469) - http://www.bohemiancoding.com/sketch -->
    <title>tab01</title>
    <desc>Created with Sketch.</desc>
    <g id="tab01" stroke="none" stroke-width="1" fill="none" fill-rule="evenodd">
        <path d="M5.97,76.07 L5.97,73.8925 L14.913186,73.8925 C14.6341355,73.2098109 14.315395,72.5436414 13.9263163,71.8087149 L13.7211817,71.4212385 L16.1258396,71.0464866 L16.2218303,71.2684653 C16.5523833,72.032869 16.8896948,72.9065886 17.2367344,73.8925 L26.53,73.8925 L26.53,76.07 L17.395,76.07 L17.395,78.3925 L24.7075,78.3925 L24.7075,86.8725 C24.7075,88.395089 23.870089,89.2325 22.3475,89.2325 L19.8560635,89.2325 L19.2834548,87.0375002 L19.7056462,87.0552766 L21.83,87.145 C22.287411,87.145 22.4625,86.969911 22.4625,86.5125 L22.4625,80.57 L17.395,80.57 L17.395,92.5175 L15.105,92.5175 L15.105,80.57 L10.3075,80.57 L10.3075,89.39 L8.085,89.39 L8.085,78.3925 L15.105,78.3925 L15.105,76.07 L5.97,76.07 Z M36.57,81.245 L36.57,79.2447595 L36.7260143,79.1545033 C39.1089776,77.7759295 41.3557811,76.2894614 43.4729205,74.6975 L36.84,74.6975 L36.84,72.5875 L47.0725,72.5875 L47.0725,74.3175 L46.9629643,74.5551168 C45.1037697,76.1431788 43.0310631,77.6733303 40.7164322,79.18 L48.6106508,79.18 L48.6023964,79.5005445 C48.4668072,84.7659258 48.2183789,88.1535843 47.8506695,89.6932924 C47.4344266,91.3582641 46.302799,92.221052 44.4875,92.27 C43.8606418,92.27 43.3370091,92.2577274 42.3174246,92.2248375 L42.0896349,92.2174895 L41.4563874,90.001123 L41.8948344,90.0254811 C43.1417324,90.0947533 43.6141565,90.115 44.2319898,90.1151027 C44.9924712,90.0956032 45.4825477,89.7612519 45.7504792,89.0723822 C46.011409,88.4300933 46.2131103,85.822618 46.3483335,81.245 L45.3055026,81.245 C44.7659309,83.8496856 43.9673447,85.954698 42.9218117,87.5455561 C41.7281427,89.2671942 39.943511,90.805867 37.5561633,92.183183 L37.3215893,92.3185141 L35.9382193,90.5578613 L36.257749,90.3795973 C38.3493011,89.2127314 39.9416763,87.9133975 41.0143659,86.5127573 C41.9421588,85.1932295 42.6454886,83.4288164 43.1139845,81.245 L41.9522837,81.245 C41.0946149,84.0260707 39.6444035,86.215247 37.6143564,87.7941726 L37.3736994,87.9813503 L35.9649532,86.2595494 L36.2185714,86.0629953 C37.8640041,84.7877849 39.0358424,83.1928511 39.7510075,81.245 L36.57,81.245 Z M28.335,79.715 L28.335,77.5375 L31.035,77.5375 L31.035,71.8 L33.325,71.8 L33.325,77.5375 L36.1375,77.5375 L36.1375,79.715 L33.325,79.715 L33.325,86.8347796 C34.1941756,86.569011 34.9936451,86.2940397 35.756393,85.996382 L36.1825,85.8300963 L36.1825,88.1902614 L35.9813737,88.2669797 C33.7940692,89.1013123 31.4188414,89.8042437 28.8730791,90.3724942 L28.5757244,90.4388681 L27.9931161,88.1084351 L28.3228021,88.0498242 C29.1265349,87.9069384 29.8750893,87.7472644 31.035,87.4791698 L31.035,79.715 L28.335,79.715 Z M56.6175,80.03 L56.6175,77.8525 L63.0525,77.8525 L63.0525,74.9740816 C61.3790872,75.1181766 59.6612766,75.1925 57.8975,75.1925 L57.673355,75.1925 L56.9668166,73.105 L57.4025,73.105 C62.2606393,73.105 66.3274811,72.5504307 69.5418317,71.4566586 L69.7872124,71.373161 L70.8845389,73.3169966 L70.5351051,73.4417943 C69.0036212,73.9887529 67.2704918,74.4071327 65.32,74.7000528 L65.32,77.8525 L71.8,77.8525 L71.8,80.03 L65.32,80.03 L65.32,82.8925 L70.3825,82.8925 L70.3825,92.54 L68.16,92.54 L68.16,91.3475 L60.3475,91.3475 L60.3475,92.585 L58.125,92.585 L58.125,82.8925 L63.0525,82.8925 L63.0525,80.03 L56.6175,80.03 Z M68.16,89.1925 L68.16,85.0475 L60.3475,85.0475 L60.3475,89.1925 L68.16,89.1925 Z M53.0290403,71.6712909 C54.5698644,72.6831754 55.8607558,73.6840427 56.8985071,74.6766744 L57.1294068,74.897535 L55.5773217,76.4496201 L55.3563831,76.2232927 C54.4841826,75.329819 53.2516939,74.3633742 51.5816562,73.2500157 L51.2576635,73.0340206 L52.8208925,71.5345969 L53.0290403,71.6712909 Z M52.5226934,77.0564663 C54.1247906,78.2109186 55.4223695,79.3223232 56.4399784,80.4284198 L56.6429264,80.6490154 L55.0722375,82.2197043 L54.8519825,81.9732284 C53.9025808,80.9108028 52.6248097,79.8004252 51.033693,78.6670271 L50.7297386,78.4505116 L52.3092082,76.9026313 L52.5226934,77.0564663 Z M56.851014,83.6740345 L56.7530271,83.9590874 C55.7455286,86.8899919 54.6598881,89.615402 53.5009403,92.1115973 L53.3729903,92.3871818 L51.1700233,91.4386821 L51.3179915,91.1427458 C52.6639517,88.4508254 53.7890137,85.816398 54.699779,83.1925266 L54.8056994,82.887375 L56.851014,83.6740345 Z M82.9825,72.88 L82.9825,75.0575 L74.2125,75.0575 L74.2125,72.88 L82.9825,72.88 Z M73.335,81.155 L73.335,78.955 L83.8375,78.955 L83.8375,81.155 L78.5681716,81.155 C77.7996203,84.0535028 77.1070299,86.2503489 76.4914316,87.7462499 C77.9316632,87.4262929 79.3860038,87.0000708 80.8433975,86.4729387 C80.2826481,85.3195944 79.7762263,84.3436044 79.2704491,83.4487679 L79.1075944,83.1606404 L81.0432934,82.2086573 L81.1878743,82.4676981 C82.2838415,84.431306 83.2999796,86.5369699 84.241046,88.8000106 L84.3515366,89.0657142 L82.3909935,90.0776074 L82.2658295,89.752181 C82.0916427,89.2992953 81.9106245,88.8554669 81.7113421,88.3896819 C79.3983839,89.1996927 76.8679184,89.8483544 74.152091,90.3301948 L73.8650382,90.3811235 L73.3385224,88.2750601 L73.6291496,88.1920238 C73.7238332,88.1649713 73.8013335,88.1378111 73.8680061,88.1091567 C74.4882233,87.2062711 75.3295457,84.8740014 76.3643808,81.155 L73.335,81.155 Z M86.5875,71.3725 L88.8325,71.3725 L88.8325,75.9175 L93.7375,75.9175 L93.7375,76.23 C93.7375,83.169595 93.6284698,87.6054046 93.4201454,89.3182896 C93.1756502,91.2987005 91.9392876,92.3375 89.8475,92.3375 C89.4614451,92.3375 88.8095021,92.3152113 87.8526359,92.2696463 L87.6206573,92.2585997 L87.101498,90.1819625 L87.5248344,90.2054811 C88.9871256,90.2867195 89.1623953,90.295 89.645,90.295 C90.5816445,90.295 91.1110155,89.765629 91.2694834,88.6373472 C91.4003387,87.4814587 91.4894561,83.9664442 91.53511,78.1175 L88.8320557,78.1175 C88.7578599,84.6475914 87.1597316,89.4635886 84.0359929,92.5184213 L83.8298387,92.720028 L82.1405599,91.2497298 L82.3851509,91.0129658 C85.1265542,88.3592874 86.5364332,84.0603383 86.5871606,78.1175 L83.55,78.1175 L83.55,75.9175 L86.5875,75.9175 L86.5875,71.3725 Z M30,16.25 C31.3807119,16.25 32.5,17.3692881 32.5,18.75 L32.5,53.75 C32.5,55.1307119 31.3807119,56.25 30,56.25 C28.6192881,56.25 27.5,55.1307119 27.5,53.75 L27.5,18.75 C27.5,17.3692881 28.6192881,16.25 30,16.25 Z M70.5647696,47.5996907 L50.6702474,47.5996907 C49.9798915,47.5996907 49.4202474,47.0400466 49.4202474,46.3496907 L49.4202474,43.0797526 C49.4202474,42.3893966 48.8606034,41.8297526 48.1702474,41.8297526 L36.25,41.8297526 C35.5596441,41.8297526 35,41.2701085 35,40.5797526 L35,17.5 C35,16.8096441 35.5596441,16.25 36.25,16.25 L53.9401856,16.25 C54.6305415,16.25 55.1901856,16.8096441 55.1901856,17.5 L55.1901856,20.7699381 C55.1901856,21.4602941 55.7498296,22.0199381 56.4401856,22.0199381 L70.5647696,22.0199381 C71.2551255,22.0199381 71.8147696,22.5795822 71.8147696,23.2699381 C71.8147696,23.4471835 71.7770752,23.6224023 71.7041877,23.7839675 L66.9619576,34.295785 C66.8145152,34.6226118 66.8145152,34.997017 66.9619576,35.3238438 L71.7041877,45.8356613 C71.9880783,46.4649446 71.7080822,47.2052183 71.0787989,47.4891089 C70.9172337,47.5619963 70.7420149,47.5996907 70.5647696,47.5996907 Z" id="Combined-Shape" fill="#000000" fill-rule="nonzero"></path>
    </g>
</svg>