<?xml version="1.0" encoding="UTF-8"?>
<svg width="100px" height="100px" viewBox="0 0 100 100" version="1.1" xmlns="http://www.w3.org/2000/svg" xmlns:xlink="http://www.w3.org/1999/xlink">
    <!-- Generator: Sketch 52.5 (67469) - http://www.bohemiancoding.com/sketch -->
    <title>unone</title>
    <desc>Created with Sketch.</desc>
    <g id="unone" stroke="none" stroke-width="1" fill="none" fill-rule="evenodd">
        <path d="M9.86132168,33.6390594 C9.86256504,34.932597 9.86256504,34.932597 9.86377607,36.216255 C9.86788781,40.6337605 9.86970465,43.6984105 9.86970465,47.2957574 C9.86970465,60.0264856 14.7163932,70.8166038 23.417158,79.4132877 C30.6243864,86.5343014 40.2485206,91.8231578 50.0007838,94.5275344 C59.7527438,91.8231333 69.3764327,86.5344646 76.5833297,79.4136932 C85.2837896,70.8172077 90.1302955,60.0272666 90.1302955,47.2965458 C90.1302955,43.698583 90.1321126,40.6336457 90.1362251,36.215235 C90.1374356,34.9321298 90.1374356,34.9321298 90.1386784,33.6391581 C90.1439415,28.1424349 90.146392,24.6426226 90.1469384,20.4068065 C87.8230431,19.607119 85.3180102,18.6191528 82.2587122,17.3220956 C80.763783,16.6882873 73.8365793,13.6690178 71.8732304,12.8387267 C63.6872154,9.3768993 57.1222475,7.0848029 50,5.44434348 C42.8777526,7.08480289 36.3127847,9.37689929 28.1267697,12.8387267 C26.1634209,13.6690177 19.2362172,16.6882872 17.7412879,17.3220956 C14.6819899,18.6191528 12.1769569,19.6071191 9.85306159,20.4068065 C9.85360799,24.6426577 9.85605861,28.1425334 9.86132168,33.6390594 Z M4.51676347,47.2957574 C4.51676347,43.7003646 4.51494754,40.6372541 4.51083723,36.2212811 C4.50962636,34.9377836 4.50962636,34.9377836 4.50838297,33.6442299 C4.50233554,27.3285462 4.5,23.64773 4.5,18.4587814 C4.5,17.282394 5.26157671,16.2426575 6.37974577,15.8924735 C9.05520784,15.0545825 11.9067972,13.9600313 15.6595436,12.3689713 C17.1208111,11.7494346 24.0509979,8.7288649 26.0495156,7.88370111 C34.727806,4.21369276 41.7070099,1.79457993 49.416432,0.0646757196 C49.8007403,-0.0215585732 50.1992598,-0.0215585732 50.5835681,0.0646757196 C58.2929902,1.79457994 65.2721942,4.21369278 73.9504845,7.8837011 C75.9490023,8.72886495 82.8791891,11.7494346 84.3404565,12.3689713 C88.0932029,13.9600313 90.9447922,15.0545825 93.6202542,15.8924735 C94.7384233,16.2426575 95.5,17.282394 95.5,18.4587814 C95.5,23.6477135 95.4976646,27.3284131 95.4916171,33.6443284 C95.4903743,34.9373162 95.4903743,34.9373162 95.489164,36.2202611 C95.4850528,40.6371393 95.4832367,43.7005371 95.4832367,47.2965458 C95.4832367,61.523928 90.0260979,73.6733418 80.3372962,83.246358 C72.2657191,91.2214762 61.531866,97.0385286 50.683105,99.911183 C50.2358836,100.029603 49.765741,100.029606 49.3185185,99.9111902 C38.4694448,97.0385748 27.7351298,91.2213323 19.6632142,83.245975 C9.97409993,73.6727644 4.51676347,61.523169 4.51676347,47.2957574 Z M45.7368438,25.8279558 C45.7248116,25.4774967 45.8844261,25.143186 46.1645172,24.9321993 L49.3530378,22.5303538 C49.7360874,22.2418106 50.2639126,22.2418106 50.6469622,22.5303538 L53.8354828,24.9321993 C54.1155739,25.143186 54.2751884,25.4774967 54.2631562,25.8279558 L53.2262641,56.0292916 C53.2169448,56.3007348 53.105248,56.5585953 52.913615,56.7510661 L50.7619865,58.9121015 C50.7608833,58.9132095 50.7597777,58.9143151 50.7586696,58.9154183 C50.3378361,59.33442 49.6570152,59.332935 49.2380135,58.9121015 L47.086385,56.7510661 C46.894752,56.5585953 46.7830552,56.3007348 46.7737359,56.0292916 L45.7368438,25.8279558 Z M50.2696972,64.1348851 L52.9771109,65.7048451 C53.1429595,65.8010165 53.2450481,65.9782259 53.2450481,66.169941 L53.2450481,69.31393 C53.2450481,69.5056451 53.1429595,69.6828545 52.9771109,69.7790258 L50.2696972,71.3489858 C50.1029058,71.4457039 49.8970942,71.4457039 49.7303028,71.3489858 L47.0228891,69.7790258 C46.8570405,69.6828545 46.7549519,69.5056451 46.7549519,69.31393 L46.7549519,66.169941 C46.7549519,65.9782259 46.8570405,65.8010165 47.0228891,65.7048451 L49.7303028,64.1348851 C49.8970942,64.0381671 50.1029058,64.0381671 50.2696972,64.1348851 Z" id="Combined-Shape" fill="#fff" fill-rule="nonzero"></path>
    </g>
</svg>