<?xml version="1.0" standalone="no"?>
<!DOCTYPE svg PUBLIC "-//W3C//DTD SVG 1.1//EN" "http://www.w3.org/Graphics/SVG/1.1/DTD/svg11.dtd" >
<!--
2013-9-30: Created.
-->
<svg>
<metadata>
Created by iconfont
</metadata>
<defs>

<font id="iconfont" horiz-adv-x="1024" >
  <font-face
    font-family="iconfont"
    font-weight="500"
    font-stretch="normal"
    units-per-em="1024"
    ascent="896"
    descent="-128"
  />
    <missing-glyph />
    
    <glyph glyph-name="-application" unicode="&#58895;" d="M128 768v-256h256V768H128z m0 64h256a64 64 0 0 0 64-64v-256a64 64 0 0 0-64-64H128a64 64 0 0 0-64 64V768a64 64 0 0 0 64 64z m512-64v-256h256V768h-256z m0 64h256a64 64 0 0 0 64-64v-256a64 64 0 0 0-64-64h-256a64 64 0 0 0-64 64V768a64 64 0 0 0 64 64z m-512-576v-256h256v256H128z m0 64h256a64 64 0 0 0 64-64v-256a64 64 0 0 0-64-64H128a64 64 0 0 0-64 64v256a64 64 0 0 0 64 64z m512-64v-256h256v256h-256z m0 64h256a64 64 0 0 0 64-64v-256a64 64 0 0 0-64-64h-256a64 64 0 0 0-64 64v256a64 64 0 0 0 64 64z"  horiz-adv-x="1024" />

    
    <glyph glyph-name="-home" unicode="&#58896;" d="M794.207241 351.72035000000005a31.96005 31.96005 0 0 0 63.9201 0v-350.282148c0-83.991011-61.874657-129.118602-140.176779-129.118602H614.27216a31.96005 31.96005 0 1 0 0 63.9201h103.742322c41.228464 0 76.256679 14.957303 76.256679 65.198502v350.282148zM413.179526-64.07989999999995a31.96005 31.96005 0 1 0 0-63.9201l-48.451436 0.12784-69.545069 0.12784c-78.302122 0-140.176779 43.657428-140.176779 127.64844V351.84819000000005a31.96005 31.96005 0 1 0 63.9201 0v-351.88015c0-50.241199 35.028215-63.72834 76.256679-63.72834a22350.621723 22350.621723 0 0 0 117.996505-0.25568zM824.441448 319.69638v63.920099h115.759301L512 826.263171 83.735331 383.616479h114.800499v-63.920099H83.799251a63.9201 63.9201 0 0 0-46.022472 108.344569l428.264669 442.646691a63.9201 63.9201 0 0 0 91.917104 0l428.264669-442.646691a63.9201 63.9201 0 0 0-46.022472-108.344569h-115.759301z m0 63.920099h115.759301L512 826.263171 83.735331 383.616479h114.800499v-63.920099H83.799251a63.9201 63.9201 0 0 0-46.022472 108.344569l428.264669 442.646691a63.9201 63.9201 0 0 0 91.917104 0l428.264669-442.646691a63.9201 63.9201 0 0 0-46.022472-108.344569h-115.759301v63.920099zM575.9201-126.72159799999997v191.7603a63.9201 63.9201 0 0 1-127.8402 0v-191.7603H384.1598v191.7603a127.8402 127.8402 0 1 0 255.6804 0v-191.7603H575.9201z m0 0v191.7603a63.9201 63.9201 0 0 1-127.8402 0v-191.7603H384.1598v191.7603a127.8402 127.8402 0 1 0 255.6804 0v-191.7603H575.9201z"  horiz-adv-x="1024" />

    
    <glyph glyph-name="-account-management" unicode="&#58898;" d="M128 704v-704h768V704H128z m0 64h768a64 64 0 0 0 64-64v-704a64 64 0 0 0-64-64H128a64 64 0 0 0-64 64V704a64 64 0 0 0 64 64z m352-256a32 32 0 1 0 0 64H768a32 32 0 0 0 0-64H480zM768 384a32 32 0 0 0 0-64H480a32 32 0 1 0 0 64H768zM352 512h-64a32 32 0 1 0 0 64h64a32 32 0 0 0 0-64z m0-192h-64a32 32 0 1 0 0 64h64a32 32 0 0 0 0-64z m0-192h-64a32 32 0 1 0 0 64h64a32 32 0 0 0 0-64z m128 0a32 32 0 1 0 0 64H768a32 32 0 0 0 0-64H480z"  horiz-adv-x="1024" />

    
    <glyph glyph-name="-logo" unicode="&#58900;" d="M375.734857 859.428571v-118.893714s29.586286-6.838857 73.069714-6.838857c43.52 0 73.142857 6.838857 73.142858 6.838857V859.428571H375.698286zM855.369143 859.428571v-118.893714s29.586286-6.838857 73.069714-6.838857c43.52 0 73.142857 6.838857 73.142857 6.838857V859.428571h-146.212571zM1335.296 859.428571v-118.893714s29.622857-6.838857 73.106286-6.838857c43.52 0 73.106286 6.838857 73.106285 6.838857V859.428571h-146.212571zM36.571429 641.462857h136.484571V799.378286H36.571429zM36.571429 394.496h136.484571V552.411429H36.571429zM112.749714 139.62971400000004H36.571429v157.915429h136.484571v-40.411429zM1481.691429 470.198857V569.856a611.108571 611.108571 0 0 0-146.212572-1.828571v-97.828572l-167.058286-318.976-166.692571 318.976V569.856c-43.52-5.668571-93.257143-7.68-146.176-1.828571v-97.828572l-173.129143-330.569143h149.138286l95.305143 196.864 96.292571-196.864H1311.488l95.341714 196.864 96.292572-196.864h151.332571l-172.763428 330.605715zM522.130286 569.856c-43.593143-5.668571-93.366857-7.68-146.285715-1.828571v-59.026286H243.748571v-132.022857h82.285715l-123.245715-237.348572h365.568l102.436572 196.827429h-119.076572l-47.36-89.124572h-101.083428l62.281143 129.645715h205.238857v132.022857h-148.662857V569.856zM1168.384 770.267429c-266.605714-139.885714-479.853714 0-479.853714 0-266.605714-139.885714-479.890286 0-479.890286 0v-155.684572c241.554286-112.713143 479.890286 0 479.890286 0 241.517714-112.713143 479.853714 0 479.853714 0 241.517714-112.713143 479.853714 0 479.853714 0V770.267429c-266.605714-139.885714-479.817143 0-479.817143 0M1053.476571-98.92571399999997h34.706286v35.108571h-34.742857zM75.483429 4.571428999999966h85.284571v-33.682286H75.483429v-72.923429H36.571429v188.854857H171.885714v-33.645714H75.483429zM254.171429 6.912000000000035c-20.845714 0-36.864-12.068571-36.864-38.363429 0-25.819429 16.713143-38.107429 36.864-38.107428 22.857143 0 36.864 14.482286 36.864 38.107428 0 22.381714-14.006857 38.363429-36.864 38.363429z m38.473142-92.452571c-5.668571-7.643429-21.723429-16.457143-40.704-16.457143-40.265143 0-67.657143 26.770286-67.657142 70.546285s27.392 70.582857 67.657142 70.582858c19.456 0 33.938286-7.862857 40.704-16.969143v11.008h36.205715v-132.242286h-36.205715v13.531429zM428.361143 6.912000000000035c-20.845714 0-36.900571-12.068571-36.900572-38.363429 0-25.819429 16.749714-38.107429 36.900572-38.107428 22.820571 0 36.864 14.482286 36.864 38.107428 0 22.381714-14.043429 38.363429-36.864 38.363429z m38.473143-92.452571c-5.668571-7.643429-21.723429-16.457143-40.704-16.457143-40.301714 0-67.657143 26.770286-67.657143 70.546285s27.355429 70.582857 67.657143 70.582858c19.419429 0 33.901714-7.862857 40.704-16.969143v64.658285h36.205714v-185.892571h-36.205714v13.531429zM602.550857 6.912000000000035c-20.845714 0-36.900571-12.068571-36.900571-38.363429 0-25.819429 16.749714-38.107429 36.900571-38.107428 22.820571 0 36.864 14.482286 36.864 38.107428 0 22.381714-14.043429 38.363429-36.864 38.363429z m38.473143-92.452571c-5.668571-7.643429-21.723429-16.457143-40.740571-16.457143-40.228571 0-67.657143 26.770286-67.657143 70.546285s27.428571 70.582857 67.657143 70.582858c19.456 0 33.938286-7.862857 40.740571-16.969143v11.008h36.205714v-132.242286h-36.205714v13.531429zM776.704 6.912000000000035c-20.809143 0-36.864-12.068571-36.864-38.363429 0-25.819429 16.749714-38.107429 36.864-38.107428 22.857143 0 36.900571 14.482286 36.900571 38.107428 0 22.381714-14.043429 38.363429-36.900571 38.363429z m38.473143-92.452571c-5.632-7.643429-21.686857-16.457143-40.704-16.457143-40.228571 0-67.657143 26.770286-67.657143 70.546285s27.428571 70.582857 67.657143 70.582858c19.456 0 33.938286-7.862857 40.704-16.969143v64.658285h36.205714v-185.892571h-36.205714v13.531429zM950.893714 6.912000000000035c-20.809143 0-36.864-12.068571-36.864-38.363429 0-25.819429 16.749714-38.107429 36.864-38.107428 22.857143 0 36.864 14.482286 36.864 38.107428 0 22.381714-14.006857 38.363429-36.864 38.363429z m40.740572-92.452571c-5.668571-7.643429-23.954286-16.457143-42.971429-16.457143-40.265143 0-67.657143 26.770286-67.657143 70.546285s27.392 70.582857 67.657143 70.582858c19.456 0 36.205714-7.862857 42.971429-16.969143v11.008h33.938285v-132.242286h-33.938285v13.531429zM1107.456-31.92685700000004c0 42.276571 31.890286 70.326857 73.069714 70.326857 29.622857 0 54.966857-14.043429 66.048-39.350857l-33.024-13.056c-5.851429 13.531429-18.541714 20.187429-33.024 20.187428-22.381714 0-36.644571-12.8-36.644571-38.107428 0-25.6 14.482286-38.144 36.864-38.144 14.482286 0 27.611429 5.668571 34.157714 19.675428l31.012572-12.288c-10.422857-26.550857-33.024-39.862857-65.170286-39.862857-41.179429 0-73.289143 28.306286-73.289143 70.582857M1299.968-31.707429000000047c0-25.563429 15.835429-38.582857 36.864-38.582857 20.845714 0 36.864 13.531429 36.864 38.582857 0 24.868571-16.054857 38.144-36.864 38.144-20.333714 0-36.864-13.531429-36.864-38.144m-35.949714 0c0 42.057143 32.768 70.326857 72.813714 70.326858 40.045714 0 73.289143-28.269714 73.289143-70.326858 0-42.532571-33.243429-70.582857-73.289143-70.582857s-72.813714 28.050286-72.813714 70.582857M1654.454857-19.16342899999995v-82.870857H1617.554286v82.870857c0 20.918857-11.958857 27.318857-26.221715 27.318858-9.947429 0-25.344-6.180571-25.563428-32v-78.189715h-36.864v82.870857c0 20.918857-12.214857 27.318857-26.038857 27.318858-11.300571 0-25.782857-6.180571-25.782857-35.657143l-2.486858-74.532572h-34.157714v135.204572h34.157714v-9.289143c9.289143 8.374857 26.697143 14.738286 37.558858 14.738286 20.589714 0 33.938286-6.875429 43.190857-18.432 10.203429 11.337143 25.344 18.432 43.227428 18.432 38.692571 0 55.881143-22.601143 55.881143-57.782858"  horiz-adv-x="1682" />

    
    <glyph glyph-name="-organization" unicode="&#58901;" d="M480 418.56V576H448a64 64 0 0 0-64 64V768a64 64 0 0 0 64 64h128a64 64 0 0 0 64-64v-128a64 64 0 0 0-64-64h-32v-157.44H896a32 32 0 0 0 32-32V192h32a64 64 0 0 0 64-64v-128a64 64 0 0 0-64-64h-128a64 64 0 0 0-64 64v128a64 64 0 0 0 64 64h32V354.55999999999995h-320V192H576a64 64 0 0 0 64-64v-128a64 64 0 0 0-64-64H448a64 64 0 0 0-64 64v128a64 64 0 0 0 64 64h32V354.55999999999995h-320V192H192a64 64 0 0 0 64-64v-128a64 64 0 0 0-64-64H64a64 64 0 0 0-64 64v128a64 64 0 0 0 64 64h32V386.56a32 32 0 0 0 32 32h352zM448 768v-128h128V768H448zM64 128v-128h128v128H64z m384 0v-128h128v128H448z m384 0v-128h128v128h-128z"  horiz-adv-x="1024" />

    
    <glyph glyph-name="-statistics" unicode="&#58902;" d="M768-11.456000000000017v370.56a32 32 0 1 0 64 0v-370.56h128a32 32 0 0 0 0-64H123.712c-51.2 0-91.712 43.52-91.712 96V759.744a32 32 0 1 0 64 0v-739.2c0-18.112 12.928-32 27.712-32h125.76V320a32 32 0 1 0 64 0v-331.456h192V422.4a32 32 0 1 0 64 0v-433.856H768zM391.232 674.56L250.88 480.256a32 32 0 1 0-51.84 37.504l159.552 220.8a32 32 0 0 0 45.248 6.784l209.664-158.592 243.328 197.76a32 32 0 0 0 40.32-49.6L634.304 521.28a32 32 0 0 0-39.488-0.704L391.296 674.56z"  horiz-adv-x="1024" />

    
    <glyph glyph-name="-shrink" unicode="&#58903;" d="M110.912 416.256l870.016-0.896a32 32 0 0 0-0.064-64L116.48 352.256l123.648-123.584a32 32 0 1 0-45.248-45.248L13.824 364.41600000000005a32 32 0 0 0 0 45.248L194.88 590.72a32 32 0 1 0 45.248-45.312L110.912 416.256zM84.864 703.36a32 32 0 0 0 0 64h896a32 32 0 0 0 0-64h-896z m896-640a32 32 0 0 0 0-64h-896a32 32 0 0 0 0 64h896z"  horiz-adv-x="1024" />

    
    <glyph glyph-name="-bell" unicode="&#58897;" d="M630.328889 7.67999999999995h-45.056a10.808889 10.808889 0 0 1-10.808889-10.865778c0-31.687111-25.429333-57.457778-56.718222-57.457778s-56.775111 25.770667-56.775111 57.457778a10.808889 10.808889 0 0 1-10.808889 10.865778h-44.942222a10.808889 10.808889 0 0 1-10.752-10.865778c0-67.640889 56.547556-124.814222 123.392-124.814222s123.221333 57.116444 123.221333 124.814222a10.808889 10.808889 0 0 1-10.808889 10.865778z m348.387555 57.457778a33.166222 33.166222 0 0 1-2.503111 12.629333 260.835556 260.835556 0 0 1-110.023111 179.939556V452.266667c0 146.773333-90.453333 278.528-225.735111 329.955555-5.518222 63.374222-59.164444 113.777778-122.652444 113.777778S400.725333 845.710222 395.093333 782.336C259.811556 730.7377779999999 169.415111 599.04 169.415111 452.266667v-194.56a260.892444 260.892444 0 0 1-109.966222-179.882667 33.564444 33.564444 0 0 1-1.934222-18.773333 212.252444 212.252444 0 0 1-0.625778-16.725334 10.808889 10.808889 0 0 1 10.808889-10.922666h900.323555a10.808889 10.808889 0 0 1 10.752 10.922666c0 5.632-0.227556 11.150222-0.568889 16.668445a41.301333 41.301333 0 0 1 0.568889 6.144z m-395.946666 664.576c15.075556-3.527111 29.696-8.305778 43.349333-14.108445 103.822222-43.804444 173.511111-149.674667 173.511111-263.338666v-226.474667c0-4.096 2.332444-7.907556 5.859556-9.784889a192.910222 192.910222 0 0 0 98.304-117.191111H131.697778a193.024 193.024 0 0 0 98.304 117.191111 10.922667 10.922667 0 0 1 5.973333 9.784889V452.266667c0 130.730667 91.192889 247.466667 216.803556 277.447111a10.808889 10.808889 0 0 1 8.248889 10.581333v30.890667c0 31.118222 25.998222 57.400889 56.832 57.400889 30.72 0 56.718222-26.339556 56.718222-57.457778v-30.72a10.808889 10.808889 0 0 1 8.192-10.695111z"  horiz-adv-x="1024" />

    
    <glyph glyph-name="-contract-service" unicode="&#58899;" d="M265.92 601.472c-17.92 0-33.664 16.448-33.664 35.328 0 18.816 15.744 35.328 33.664 35.328h403.84c17.92 0 33.664-16.512 33.664-35.328 0-18.88-15.744-35.328-33.664-35.328h-403.84zM275.2 384.64c-17.92 0-33.664 16.512-33.664 35.328 0 18.816 15.68 35.328 33.664 35.328h112c17.92 0 33.6-16.512 33.6-35.328 0-18.816-15.68-35.328-33.664-35.328H275.2z m672.32-206.464c0-129.536-100.928-235.52-224.32-235.52s-224.384 105.984-224.384 235.52c0 129.472 100.992 235.52 224.384 235.52 123.392 0 224.32-106.048 224.32-235.52z m-515.968 0C431.552 8.576000000000022 561.664-128 723.2-128c161.536 0 291.648 136.576 291.648 306.176 0 169.536-130.112 306.112-291.648 306.112-161.536 0-291.648-136.576-291.648-306.112z m331.008 62.656c2.048-4.352 6.144-6.464 10.24-8.64l59.52-8.64c10.24-2.112 16.384-15.04 8.192-23.68l-43.072-45.184c-4.096-4.352-4.096-8.64-4.096-12.928l10.24-62.464c2.048-10.752-10.24-19.392-18.496-15.104l-53.312 30.144a12.544 12.544 0 0 1-12.288 0l-55.424-27.968c-10.24-6.464-20.48 4.288-18.432 15.04l10.24 62.464c0 4.352 0 8.64-4.096 12.928l-43.072 45.248c-8.256 8.64-4.16 21.504 8.192 23.68l59.52 8.64c4.096 0 8.192 4.288 10.24 8.576l26.624 58.176c4.16 8.576 16.448 8.576 22.592-2.176l26.688-58.112z m-604.352-216.192c-13.44 0-26.88 14.144-26.88 28.288V797.12c0 14.08 13.44 28.224 26.88 28.224h616.96a30.08 30.08 0 0 0 29.184-28.224V542.72h67.328V797.12C871.68 851.2 829.056 896 777.472 896H158.208C106.624 896 64 851.2 64 797.12v-741.824c0-56.576 42.624-101.312 94.208-101.312h219.904v70.656H158.208z"  horiz-adv-x="1024" />

    
    <glyph glyph-name="-account" unicode="&#58904;" d="M512 839.111111C261.063111 839.111111 56.888889 634.88 56.888889 384s204.231111-455.111111 455.111111-455.111111 455.111111 204.231111 455.111111 455.111111-204.174222 455.111111-455.111111 455.111111z m0-872.504889c-230.172444 0-417.393778 187.221333-417.393778 417.393778 0 230.172444 187.221333 417.393778 417.393778 417.393778 230.172444 0 417.393778-187.221333 417.393778-417.393778 0-230.172444-187.221333-417.393778-417.393778-417.393778z m88.632889 409.656889a159.516444 159.516444 0 1 1-177.208889 0 241.948444 241.948444 0 0 1-153.258667-225.052444V150.47111099999995c0-13.994667 11.320889-25.258667 25.258667-25.258667 13.994667 0 19.626667 11.264 19.626667 25.258667l-0.113778 0.910222c0.113778 105.642667 91.420444 196.949333 197.12 196.949334 105.699556 0 197.063111-91.420444 197.063111-197.12 0-0.170667-1.308444-25.998222 19.683556-25.998223a25.144889 25.144889 0 0 1 25.144888 25.088v0.170667 0.739556a242.062222 242.062222 0 0 1-153.315555 225.052444zM512 388.323556a120.604444 120.604444 0 1 0 0 241.208888 120.604444 120.604444 0 0 0 0-241.208888z"  horiz-adv-x="1024" />

    
    <glyph glyph-name="-look" unicode="&#58905;" d="M929.664 394.88V737.664c0 52.096-42.24 94.336-94.272 94.336h-613.12C170.24 832 128 789.76 128 737.664v-660.16c0-52.096 42.24-94.336 94.336-94.336h293.824v64H222.336A30.336 30.336 0 0 0 192 77.44000000000005V737.664C192 754.432 205.568 768 222.336 768h613.056c16.704 0 30.272-13.568 30.272-30.336V394.88h64z m0 342.784c0 52.096-42.24 94.336-94.272 94.336h-613.12C170.24 832 128 789.76 128 737.664v-660.16c0-52.096 42.24-94.336 94.336-94.336h293.824v64H222.336A30.336 30.336 0 0 0 192 77.44000000000005V737.664C192 754.432 205.568 768 222.336 768h613.056c16.704 0 30.272-13.568 30.272-30.336V394.88h64V737.664z m-87.68-509.824a192 192 0 1 0-384 0 192 192 0 0 0 384 0z m-64 0a128 128 0 1 1-256 0 128 128 0 0 1 256 0zM747.52 77.82399999999996a32 32 0 0 0 45.248 45.248l90.496-90.496a32 32 0 1 0-45.248-45.312l-90.496 90.56zM288 576a32 32 0 0 0 0 64h448a32 32 0 0 0 0-64h-448zM288 384a32 32 0 0 0 0 64h128a32 32 0 0 0 0-64h-128z"  horiz-adv-x="1024" />

    
    <glyph glyph-name="-setting" unicode="&#58906;" d="M512 160a224 224 0 1 0 0 448 224 224 0 0 0 0-448z m0 64a160 160 0 1 1 0 320 160 160 0 0 1 0-320zM204.672 388.48c0-59.776-35.072-112.384-87.04-136.896 16.448-48.448 41.728-93.44 74.496-132.672a152.512 152.512 0 0 0 87.488 27.392 151.872 151.872 0 0 0 151.168-169.856 424.512 424.512 0 0 1 161.024-1.536 151.872 151.872 0 0 0 151.936 162.432c31.744 0 61.952-9.728 87.104-27.2a415.104 415.104 0 0 1 77.76 129.536 151.552 151.552 0 0 0-94.784 140.288c0 64 40.064 119.296 97.344 141.312a414.912 414.912 0 0 1-81.792 138.24c-24.96-17.024-54.848-26.432-86.144-26.432a151.872 151.872 0 0 0-152.064 160.128 425.088 425.088 0 0 1-164.16-2.432c0.128-1.856 0.128-3.648 0.128-5.504a151.872 151.872 0 0 0-152.32-151.424c-27.84 0-54.528 7.424-77.696 21.12a414.784 414.784 0 0 1-76.8-130.944A151.488 151.488 0 0 0 204.672 388.48zM49.792 513.28A478.72 478.72 0 0 0 170.24 720.1279999999999a32 32 0 0 0 44.48 1.088c16.192-14.976 37.44-23.36 60.096-23.36a87.936 87.936 0 0 1 85.632 109.12 32 32 0 0 0 22.272 38.72A486.592 486.592 0 0 0 515.2 864c40.96 0 81.28-5.12 120.32-14.976a32 32 0 0 0 22.784-40.064 87.936 87.936 0 0 1 84.864-111.936c25.024 0 48.32 10.368 64.96 28.224a32 32 0 0 0 45.76 1.088 478.848 478.848 0 0 0 128.64-219.52 32 32 0 0 0-27.2-40 87.808 87.808 0 0 1-77.568-86.848c0-43.712 32.64-80.64 76.032-86.656a32 32 0 0 0 26.432-40.448 478.976 478.976 0 0 0-124.8-209.728 32 32 0 0 0-46.08 1.28 88.384 88.384 0 0 1-65.664 28.928 87.936 87.936 0 0 1-84.352-113.472 32 32 0 0 0-22.592-40.576 487.168 487.168 0 0 0-121.536-15.296 486.656 486.656 0 0 0-131.648 18.048 32 32 0 0 0-21.248 42.112 86.4 86.4 0 0 1 5.568 30.72c0 48.256-39.488 87.424-88.32 87.424-25.728 0-49.6-10.88-66.304-29.568a32 32 0 0 0-46.848-0.96A478.4 478.4 0 0 0 47.296 263.744a32 32 0 0 0 24.128 39.296A87.68 87.68 0 0 1 140.672 388.48a87.68 87.68 0 0 1-67.584 84.992 32 32 0 0 0-23.36 39.808z"  horiz-adv-x="1024" />

    
    <glyph glyph-name="-sign" unicode="&#58907;" d="M576.64 214.784l270.72 211.52-39.36 50.432-270.72-211.52 39.36-50.432z m-129.28 61.44l371.648 290.368 118.208-151.296-371.584-290.368L447.36 276.22400000000005zM820.672 486.912l-39.424 50.432 67.264 52.48a74.688 74.688 0 0 0 104.832-12.8l26.24-33.664c25.408-32.448 19.648-79.36-12.864-104.768l-67.2-52.544-39.424 50.432 67.2 52.48a10.688 10.688 0 0 1 1.856 15.04l-26.24 33.6a10.688 10.688 0 0 1-14.976 1.856l-67.264-52.544zM466.368 168.832l77.504 15.68a32 32 0 1 0 12.736-62.72l-140.288-28.352a32 32 0 0 0-35.2 45.12l61.44 129.216a32 32 0 0 0 57.792-27.52l-33.984-71.424zM865.664 628.352V737.664c0 52.096-42.24 94.336-94.272 94.336h-613.12C106.24 832 64 789.76 64 737.664v-660.16c0-52.096 42.24-94.336 94.336-94.336h613.056c52.096 0 94.272 42.24 94.272 94.336v60.672h-64v-60.672a30.336 30.336 0 0 0-30.272-30.336h-613.12A30.336 30.336 0 0 0 128 77.44000000000005V737.664C128 754.432 141.568 768 158.336 768h613.056c16.704 0 30.272-13.568 30.272-30.336v-109.312h64z m0 0V737.664c0 52.096-42.24 94.336-94.272 94.336h-613.12C106.24 832 64 789.76 64 737.664v-660.16c0-52.096 42.24-94.336 94.336-94.336h613.056c52.096 0 94.272 42.24 94.272 94.336v60.672h-64v-60.672a30.336 30.336 0 0 0-30.272-30.336h-613.12A30.336 30.336 0 0 0 128 77.44000000000005V737.664C128 754.432 141.568 768 158.336 768h613.056c16.704 0 30.272-13.568 30.272-30.336v-109.312h64zM224 576a32 32 0 0 0 0 64h448a32 32 0 0 0 0-64h-448zM224 384a32 32 0 0 0 0 64h128a32 32 0 0 0 0-64h-128z"  horiz-adv-x="1024" />

    
    <glyph glyph-name="-cert" unicode="&#58909;" d="M584.576 105.91999999999996a192 192 0 1 0 318.528 23.424c0.64-0.96 1.28-1.92 1.92-3.072l74.048-146.496a25.6 25.6 0 0 0-27.968-36.608l-61.888 12.608-14.464-54.4a25.6 25.6 0 0 0-48-4.288l-63.68 136.832a193.664 193.664 0 0 0-27.584-1.92l-67.2-144.384a25.6 25.6 0 0 0-48 4.224l-14.464 54.4-61.952-12.608a25.6 25.6 0 0 0-27.968 36.672l68.672 135.68z m38.528-37.248l-37.568-74.24 33.728 6.848a25.6 25.6 0 0 0 29.824-18.56l2.56-9.472 30.848 66.304a191.296 191.296 0 0 0-59.392 29.12z m189.888-20.608l30.4-65.28 2.56 9.472a25.6 25.6 0 0 0 29.824 18.56l33.728-6.912-39.232 77.504-11.648-5.12a192 192 0 0 0-45.632-28.224zM253.248 575.616a32 32 0 1 0 0 64h393.472a32 32 0 1 0 0-64H253.248z m0-192a32 32 0 1 0 0 64H465.92a32 32 0 1 0 0-64H253.248zM736 96a128 128 0 1 1 0 256 128 128 0 0 1 0-256zM832 489.984h-64V768H128v-704h352.32v-64H128a64 64 0 0 0-64 64V768a64 64 0 0 0 64 64h640a64 64 0 0 0 64-64v-278.016z"  horiz-adv-x="1024" />

    
    <glyph glyph-name="-ashcan" unicode="&#58910;" d="M184.765217 713.99513v-745.961739c0-25.822609 20.925217-46.747826 46.747826-46.747826h560.973914c25.822609 0 46.747826 20.925217 46.747826 46.747826V713.99513H184.765217zM138.017391 760.7429569999999h747.965218v-792.709566a93.495652 93.495652 0 0 0-93.495652-93.495652H231.513043a93.495652 93.495652 0 0 0-93.495652 93.495652V760.7429569999999zM64.734609 716.933565a22.26087 22.26087 0 1 0 0 44.521739h882.509913a22.26087 22.26087 0 0 0 0-44.521739H64.734609zM313.254957 473.043478a22.26087 22.26087 0 1 0 44.521739 0V139.13043500000003a22.26087 22.26087 0 1 0-44.521739 0V473.043478zM669.42887 473.043478a22.26087 22.26087 0 1 0 44.521739 0V139.13043500000003a22.26087 22.26087 0 1 0-44.521739 0V473.043478zM491.341913 473.043478a22.26087 22.26087 0 1 0 44.521739 0V139.13043500000003a22.26087 22.26087 0 1 0-44.521739 0V473.043478zM371.44487 808.870957V762.434783h280.486956V808.870957h-280.486956z m0 46.747826h280.486956c25.822609 0 46.747826-20.925217 46.747826-46.747826V762.434783c0-25.822609-20.925217-46.747826-46.747826-46.747826h-280.486956c-25.822609 0-46.747826 20.925217-46.747827 46.747826V808.870957c0 25.822609 20.925217 46.747826 46.747827 46.747826z"  horiz-adv-x="1024" />

    
    <glyph glyph-name="-createApp" unicode="&#58908;" d="M768 684.864V768a64 64 0 0 1-64 64H128a64 64 0 0 1-64-64v-704a64 64 0 0 1 64-64h170.688v64H128V768h576v-83.136h64z m0 0V768a64 64 0 0 1-64 64H128a64 64 0 0 1-64-64v-704a64 64 0 0 1 64-64h170.688v64H128V768h576v-83.136h64zM320 640v-704h576V640H320z m0 64h576a64 64 0 0 0 64-64v-704a64 64 0 0 0-64-64H320a64 64 0 0 0-64 64V640a64 64 0 0 0 64 64zM453.76 266.81600000000003a32 32 0 1 0 0 64h320a32 32 0 1 0 0-64h-320zM644.992 136.96000000000004a32 32 0 0 0-64 0v320a32 32 0 1 0 64 0v-320z"  horiz-adv-x="1024" />

    
    <glyph glyph-name="-add" unicode="&#58911;" d="M539.888941 425.562353h376.350118a30.117647 30.117647 0 1 0 0-60.235294H539.888941v-376.289883a30.117647 30.117647 0 1 0-60.235294 0V365.32705899999996H103.303529a30.117647 30.117647 0 1 0 0 60.235294h376.350118V801.912471a30.117647 30.117647 0 1 0 60.235294 0V425.562353z"  horiz-adv-x="1024" />

    
    <glyph glyph-name="-magnifier" unicode="&#58912;" d="M726.208 128.44799999999998a423.68 423.68 0 1 0 44.992 45.568l222.72-222.72a32 32 0 0 0-45.184-45.312l-222.528 222.464z m-23.872 65.28a359.68 359.68 0 1 1-508.672 508.608 359.68 359.68 0 0 1 508.672-508.672z"  horiz-adv-x="1024" />

    
    <glyph glyph-name="-delete" unicode="&#58913;" d="M277.312 313.6a38.4 38.4 0 1 0 0 76.8h463.168a38.4 38.4 0 0 0 0-76.8H277.312zM512-96a480 480 0 1 0 0 960 480 480 0 0 0 0-960z m0 64a416 416 0 1 1 0 832 416 416 0 0 1 0-832z"  horiz-adv-x="1024" />

    
    <glyph glyph-name="-modify" unicode="&#58914;" d="M959.552 349.24800000000005H960v-293.76C960-10.495999999999981 906.496-64 840.512-64H183.488A119.488 119.488 0 0 0 64 55.488000000000056V712.512C64 778.496 117.504 832 183.488 832h286.464v-0.128a32.064 32.064 0 0 0 4.032-0.448A32.192 32.192 0 0 0 512 800a32 32 0 0 0-37.568-31.552 32.192 32.192 0 0 0-8.32-0.448H183.424A55.488 55.488 0 0 1 128 712.512v-657.024c0-30.656 24.832-55.488 55.488-55.488h657.024a55.488 55.488 0 0 1 55.488 55.488V341.88800000000003a32 32 0 0 0 63.552 7.36zM434.56 197.12a38.4 38.4 0 0 0-62.912 44.032l394.88 564.352a38.4 38.4 0 0 0 62.912-44.032l-394.88-564.352z"  horiz-adv-x="1024" />

    
    <glyph glyph-name="-add-circle" unicode="&#58915;" d="M512-96a480 480 0 1 0 0 960 480 480 0 0 0 0-960z m0 64a416 416 0 1 1 0 832 416 416 0 0 1 0-832zM550.4 96a38.4 38.4 0 1 0-76.8 0v512a38.4 38.4 0 0 0 76.8 0v-512zM277.312 313.6a38.4 38.4 0 1 0 0 76.8h463.168a38.4 38.4 0 0 0 0-76.8H277.312z"  horiz-adv-x="1024" />

    
    <glyph glyph-name="-default" unicode="&#58916;" d="M13.736585 892.153756v-45.780293h99.902439zM975.047805-0.07492700000000241l-1.198829-114.113561h45.080975zM606.882341 892.453463l416.94283-416.59317-4.820293-591.172683L13.486829 892.453463zM566.371902 638.75122l5.369757 5.369756-26.898732 26.898731-17.80761-17.782634 40.360585-40.360585-11.388878-11.388878-40.360585 40.360585-17.383024-17.383024c15.484878-13.811512 31.11961-27.523122 46.979122-41.209756a179.574634 179.574634 0 0 1-12.188098-12.612683 25605.794341 25605.794341 0 0 1-108.893659 93.558634l11.813464 16.334049c16.084293-14.685659 32.293463-29.371317 48.652488-44.081952l18.207219 18.232196-41.209756 41.18478 11.388878 11.363902 41.209756-41.18478 17.782634 17.80761-26.698926 26.698927-5.369757-5.394732-12.837463 12.837463 82.369561 82.369561 92.085073-92.085073-82.369561-82.369561-12.812488 12.812488z m53.198049 16.334048l32.068683-32.068683c14.485854 13.661659 33.866927 32.618146 58.14322 56.894439l15.310048-15.310048c-23.452098-23.452098-42.833171-42.408585-58.143219-56.894439l46.154927-46.154927-13.861464-13.886439-46.454634 46.454634c-44.231805-58.417951-65.186341-113.639024-62.838634-165.66322a158.09561 158.09561 0 0 1-28.547122-2.048c1.848195 44.481561 17.383024 89.063024 46.554537 133.694439a251.404488 251.404488 0 0 0-138.664586-47.403707c1.123902 8.841366 1.673366 17.108293 1.673366 24.825756 57.868488-1.024 113.389268 22.952585 166.487415 71.929756l-31.768976 31.768976 13.861464 13.861463z m17.782634 54.646634l-26.898731 26.898732-54.222049-54.222049 26.898732-26.898731 54.197073 54.197073z m-120.65717 12.213074l26.698926-26.723903 54.197074 54.247025-26.673952 26.698926-54.222048-54.222048z m-83.193756-91.485659c-16.284098-8.841366-33.267512-16.408976-50.925269-22.75278l-8.067122 18.407024c17.108293 5.244878 34.01678 12.213073 50.700488 20.904585l8.291903-16.558829z m274.432 7.442732l19.231219 0.62439c2.497561-20.130341 3.796293-36.614244 3.946146-49.451707l-22.977561-0.624391c0.674341 13.93639 0.62439 30.420293-0.199804 49.451708z m-253.32761-19.85561a636.103805 636.103805 0 0 0-21.928586-41.809171l-17.383024 8.691512c8.81639 13.786537 16.983415 27.473171 24.401171 40.96l14.910439-7.842341z m28.971707-19.05639c-2.347707-9.490732-7.367805-23.377171-15.110244-41.58439l-17.982439 7.667512a327.180488 327.180488 0 0 1 17.782634 40.96l15.310049-7.043122z m134.119024 98.104195c-14.760585-8.41678-27.672976-14.985366-38.712195-19.655805l-7.043122 13.661659c8.841366 3.87122 21.404098 10.614634 37.688196 20.280195l8.067121-14.286049z m-59.816585 60.241171l13.861464-7.242927a463.996878 463.996878 0 0 0-20.48-37.063805l-14.485854 7.867317c7.018146 10.63961 14.061268 22.777756 21.10439 36.439415z m-43.682341-174.08c-1.373659-11.014244-3.721366-22.877659-7.018147-35.590244l-18.432 3.946146c3.171902 8.966244 6.343805 20.979512 9.515708 36.014829l15.934439-4.345756z m414.145561-125.202732l16.733658-16.733659c-18.257171-18.03239-36.264585-35.540293-53.997268-52.573658-55.395902-70.581073-75.401366-135.917268-60.01639-196.008586-10.489756-0.549463-20.280195-1.373659-29.396293-2.49756-8.741463 50.176 4.32078 103.324098 39.211707 159.494243-49.251902-34.091707-104.797659-47.228878-166.687219-39.436487 0.699317 7.043122 1.098927 15.459902 1.24878 25.225365 73.528195-11.988293 140.238049 11.688585 200.129561 71.005659 15.859512 15.035317 33.467317 32.218537 52.773464 51.524683z m-161.642147-78.023805c-5.244878-6.893268-9.740488-13.586732-13.461853-20.055415a1019.67922 1019.67922 0 0 1-75.326439 7.018147 96.605659 96.605659 0 0 1-20.280196-1.248781l0.624391 25.050537c8.966244 0.149854 17.233171 3.996098 24.825756 11.588683l69.756878 69.756878-27.722927 27.722927 14.885463 14.910439 43.882147-43.882147-84.442537-84.417561c18.357073-2.097951 40.760195-4.245854 67.259317-6.443707z m68.508098 167.836098a1784.60722 1784.60722 0 0 0-1.673366-71.580098l-26.074537 2.497561c2.497561 21.778732 4.220878 45.45561 5.169952 70.955707l22.577951-1.848195z"  horiz-adv-x="1024" />

    
    <glyph glyph-name="-upload-template" unicode="&#58917;" d="M832.512 530.816H832v232.32c0 1.28-3.968 4.864-11.648 4.864H133.312C129.28 768 128 766.784 128 768v-763.072c0-1.28 3.968-4.928 11.648-4.928H544a32 32 0 1 0-1.472-64H139.648C97.856-64 64-33.152000000000044 64 4.927999999999997V768c0 35.328 31.04 64 69.312 64h687.04C862.144 832 896 801.152 896 763.072v-224.64a32.384 32.384 0 0 0 0-4.096v-3.52h-0.448a32 32 0 0 0-63.04 0z m-20.736-255.232v-307.84a32 32 0 1 0-64 0V283.328L662.784 198.39999999999998a32 32 0 1 0-45.248 45.248l135.744 135.744a32 32 0 0 0 45.248 0l135.744-135.68a32 32 0 1 0-45.248-45.312l-77.248 77.248zM259.072 578.048a32 32 0 0 0 0 64h438.848a32 32 0 1 0 0-64H259.072z m3.456-193.472a32 32 0 1 0 0 64h280a32 32 0 1 0 0-64H262.528z"  horiz-adv-x="1024" />

    
    <glyph glyph-name="-upload-seal" unicode="&#58918;" d="M627.646338 895.98528H703.99724a63.99908 63.99908 0 0 0 63.99908-63.99908v-63.99908h63.99908a63.99908 63.99908 0 0 0 63.99908-63.99908v-703.98988a63.99908 63.99908 0 0 0-63.99908-63.99908H256.00368a63.99908 63.99908 0 0 0-63.99908 63.99908v63.99908H128.00552a63.99908 63.99908 0 0 0-63.99908 63.99908V831.9862a63.99908 63.99908 0 0 0 63.99908 63.99908h85.950764v-0.255996a31.99954 31.99954 0 1 0-3.839944-63.743084H128.00552v-703.98988h575.99172V831.9862H625.726365a31.99954 31.99954 0 1 0 1.919973 63.99908zM256.00368 63.99724000000003v-63.99908h575.99172V703.98804h-63.99908v-575.99172a63.99908 63.99908 0 0 0-63.99908-63.99908H256.00368z m191.99724 558.967965V287.99402a31.99954 31.99954 0 0 0-63.99908 0V631.029089L298.883064 545.782314a31.99954 31.99954 0 1 0-45.311349 45.24735l135.806048 135.742049a31.99954 31.99954 0 0 0 45.247349 0l135.742049-135.742049a31.99954 31.99954 0 0 0-45.24735-45.24735L448.00092 622.965205z"  horiz-adv-x="1024" />

    
    <glyph glyph-name="-add-person" unicode="&#58919;" d="M777.024 124.79999999999995v107.52a32 32 0 1 0 64 0v-107.52h115.712a32 32 0 0 0 0-64H840.96v-104.832a32 32 0 0 0-64 0v104.896h-115.392a32 32 0 1 0 0 64h115.392z m-454.912 171.072a288.128 288.128 0 0 0 89.088 561.92 288 288 0 0 0 100.16-558.08 424.832 424.832 0 0 0 140.288-53.888 32 32 0 1 0-33.28-54.656 370.624 370.624 0 0 1-192.768 52.672c-185.664 0-334.592-129.984-334.592-288a32 32 0 0 0-64 0c0 163.52 125.632 299.904 295.104 340.032z m89.088 49.92a224 224 0 1 1 0 448 224 224 0 0 1 0-448z"  horiz-adv-x="1024" />

    
    <glyph glyph-name="-import-member" unicode="&#58920;" d="M552.576 413.696l90.432 90.432a35.2 35.2 0 0 0 49.792-1.088 35.2 35.2 0 0 0 1.088-49.792L547.648 307.072a35.2 35.2 0 0 0-49.792 1.088L345.28 460.736a35.2 35.2 0 0 0-1.024 49.792 35.2 35.2 0 0 0 49.792-1.088l94.528-94.528V777.984c0 16.448 14.336 29.824 32 29.824s32-13.376 32-29.824v-364.288zM960 562.1759999999999v-554.24c0-39.68-30.848-71.936-68.928-71.936H132.928C94.848-64 64-31.807999999999993 64 7.9360000000000355v558.72h0.128a35.2 35.2 0 0 0 34.368 38.592 35.2 35.2 0 0 0 34.368-38.528v-558.784h758.144v558.72h0.128a35.136 35.136 0 0 0 34.432 33.92 35.2 35.2 0 0 0 34.368-38.4zM100.928 128v64h822.144v-64H100.928zM98.56 542.0799999999999a32 32 0 1 0 0 64h117.12a32 32 0 1 0 0-64h-117.12z m712.896-1.024a32 32 0 1 0 0 64h117.12a32 32 0 0 0 0-64h-117.12z"  horiz-adv-x="1024" />

    
    <glyph glyph-name="-right-arrow" unicode="&#58921;" d="M677.966769 371.633231L260.174769 789.346462A39.384615 39.384615 0 0 0 315.864615 845.115077l445.597539-445.597539a39.384615 39.384615 0 0 0 0-55.689846L315.864615-101.76984600000003a39.384615 39.384615 0 1 0-55.689846 55.689846l417.792 417.713231z"  horiz-adv-x="1024" />

    
    <glyph glyph-name="-real-name" unicode="&#58922;" d="M244.352 382.08000000000004a121.6 121.6 0 1 0 165.568-0.32 217.664 217.664 0 0 0 134.4-201.152 25.6 25.6 0 1 0-51.2 0 166.4 166.4 0 1 1-332.8 0 25.6 25.6 0 1 0-51.2 0c0 91.008 55.872 168.96 135.232 201.472z m82.944 18.496a70.4 70.4 0 1 1 0 140.8 70.4 70.4 0 0 1 0-140.8z m317.376 66.304a32 32 0 0 0 0 64h204.8a32 32 0 1 0 0-64h-204.8z m-1.6-128a32 32 0 0 0 0 64h144a32 32 0 1 0 0-64h-144z m1.6-128a32 32 0 0 0 0 64h204.8a32 32 0 1 0 0-64h-204.8z m-579.072 460.16v-576h896v576h-896z m0 64h896a64 64 0 0 0 64-64v-576a64 64 0 0 0-64-64h-896a64 64 0 0 0-64 64v576a64 64 0 0 0 64 64z"  horiz-adv-x="1025" />

    
    <glyph glyph-name="-cross" unicode="&#58924;" d="M612.352 384l322.56 322.423467a71.0656 71.0656 0 0 1 0 100.420266 70.8608 70.8608 0 0 1-100.352 0.068267L512 484.420267 189.371733 806.980267a70.8608 70.8608 0 0 1-100.352-0.068267 71.0656 71.0656 0 0 1 0-100.420267L411.648 383.931733l-322.491733-322.423466a71.0656 71.0656 0 0 1-0.068267-100.420267 70.8608 70.8608 0 0 1 100.352 0L512 283.648l322.628267-322.628267a70.929067 70.929067 0 0 1 100.283733 100.488534L612.352 384V384z"  horiz-adv-x="1024" />

    


  </font>
</defs>
</svg>
